# xmcd
#
# Track frame offsets: 
#        150
#        18090
#        35317
#        52695
#        69025
#        83904
#        100709
#        117680
#        134673
#        149550
#        162102
#        176269
#        189035
#        204286
#        219292
#        234241
#
# Disc length: 3313 seconds
#
# Revision: 1
# Processed by: cddbd v1.5.2PL0 Copyright (c) Steve Scherf et al.
# Submitted via: ExactAudioCopyFreeDBPlugin 1.0
#
DISCID=c30cef10
DTITLE=สายัณห์ สัญญา - ลารักจากสวนแตง
DYEAR=2008
DGENRE=Country
TTITLE0=ลารักจากสวนแตง
TTITLE1=สาวครวญจากสวนแตง
TTITLE2=สัญญาห้าปี
TTITLE3=ฝากใจไว้ที่เดือน
TTITLE4=เสียงแคนสิ้นมนต์ขลัง
TTITLE5=อยากไปให้พ้น
TTITLE6=สาวยโสธร
TTITLE7=เพราะฉันโง่ซิ
TTITLE8=พรุ่งนี้ค่อยร้องไห้
TTITLE9=สายัณห์คอยคู่
TTITLE10=รักทรมาน
TTITLE11=คนใต้ไม่หวาน
TTITLE12=ภูธรที่รัก
TTITLE13=ฉันรักลูกกรุง
TTITLE14=รักตกกระป๋อง
TTITLE15=ที่รักเธออยู่ไหน
EXTD=
EXTT0=
EXTT1=
EXTT2=
EXTT3=
EXTT4=
EXTT5=
EXTT6=
EXTT7=
EXTT8=
EXTT9=
EXTT10=
EXTT11=
EXTT12=
EXTT13=
EXTT14=
EXTT15=
PLAYORDER=
